<?xml version="1.0" standalone="no"?>
<!DOCTYPE svg PUBLIC "-//W3C//DTD SVG 20010904//EN"
 "http://www.w3.org/TR/2001/REC-SVG-20010904/DTD/svg10.dtd">
<svg version="1.0" xmlns="http://www.w3.org/2000/svg"
 width="500.000000pt" height="150.000000pt" viewBox="0 0 500.000000 150.000000"
 preserveAspectRatio="xMidYMid meet">

<g transform="translate(0.000000,150.000000) scale(0.100000,-0.100000)"
fill="#000000" stroke="none">
<path d="M2413 1185 c-137 -30 -255 -125 -316 -252 -30 -64 -32 -74 -32 -184
0 -113 1 -117 37 -190 83 -167 272 -275 443 -252 327 42 501 388 338 670 -31
54 -129 144 -186 172 -44 21 -164 51 -202 50 -11 0 -48 -7 -82 -14z m208 -44
c161 -51 274 -190 286 -354 5 -70 -8 -167 -27 -197 -17 -28 -19 -4 -3 49 23
79 14 200 -19 273 -50 109 -169 205 -278 223 -22 4 -40 11 -40 16 0 13 10 12
81 -10z m34 -67 c112 -52 194 -171 203 -293 5 -70 -12 -166 -30 -177 -7 -5 -8
6 -2 32 17 74 10 205 -13 256 -43 94 -145 174 -245 193 -21 4 -38 11 -38 17 0
14 68 -1 125 -28z m-42 -34 c115 -43 187 -141 195 -264 4 -74 -11 -156 -29
-156 -7 0 -8 7 -3 18 4 9 9 54 12 100 4 74 1 88 -23 137 -35 73 -103 131 -177
153 -32 9 -58 20 -58 25 0 12 27 8 83 -13z m-411 -34 c-10 -14 -22 -22 -26
-19 -3 4 4 17 16 30 28 30 36 22 10 -11z m416 -23 c84 -40 142 -135 142 -233
0 -54 -18 -113 -31 -104 -5 3 -5 13 1 24 18 34 12 140 -11 187 -28 57 -90 109
-150 124 -27 7 -49 17 -49 22 0 12 52 2 98 -20z m-375 -7 c-10 -13 -22 -22
-26 -19 -9 6 21 43 35 43 5 0 1 -11 -9 -24z m47 -14 c0 -10 -22 -32 -32 -32
-5 0 -3 9 4 20 13 20 28 27 28 12z m311 -28 c70 -39 103 -91 107 -173 2 -44
-1 -72 -10 -84 -11 -15 -13 -5 -13 66 0 76 -2 87 -28 120 -28 37 -92 77 -122
77 -8 0 -15 5 -15 10 0 17 30 11 81 -16z m-281 -19 c-7 -8 -17 -15 -23 -15 -5
0 -2 9 8 20 21 23 35 19 15 -5z m-184 -21 c-55 -142 -18 -313 91 -422 53 -53
137 -98 202 -108 22 -4 41 -11 41 -16 0 -13 -58 -2 -129 24 -80 30 -189 140
-221 223 -38 97 -29 315 12 315 6 0 7 -7 4 -16z m37 -50 c-59 -174 74 -394
260 -429 20 -4 37 -11 37 -17 0 -5 -16 -6 -37 -2 -153 28 -278 170 -291 329
-5 65 21 181 38 170 5 -3 2 -26 -7 -51z m187 41 c-7 -8 -17 -15 -22 -15 -6 0
-5 7 2 15 7 8 17 15 22 15 6 0 5 -7 -2 -15z m210 -3 c145 -72 81 -293 -81
-279 -87 7 -146 78 -136 163 11 106 121 165 217 116z m-347 -34 c-4 -13 -8
-59 -8 -103 0 -66 5 -89 25 -129 34 -66 100 -122 169 -143 69 -21 91 -38 38
-30 -89 14 -186 88 -228 174 -12 24 -24 72 -26 106 -5 65 10 147 28 147 6 0 7
-8 2 -22z m47 -24 c-6 -14 -10 -49 -10 -78 0 -104 75 -201 177 -229 24 -6 43
-15 43 -19 0 -29 -120 24 -167 73 -45 47 -73 114 -73 175 0 56 17 117 31 109
4 -3 4 -17 -1 -31z m43 -61 c-4 -63 -2 -72 26 -115 29 -45 90 -88 126 -88 8 0
15 -4 15 -10 0 -28 -88 10 -132 57 -49 51 -70 133 -52 201 12 44 21 20 17 -45z
m351 -148 c-4 -8 -13 -15 -21 -15 -13 0 -13 3 -3 15 7 8 16 15 21 15 5 0 6 -7
3 -15z m36 -35 c-11 -20 -30 -28 -30 -12 0 11 22 32 32 32 5 0 4 -9 -2 -20z
m50 -19 c0 -13 -29 -35 -37 -28 -7 8 15 37 28 37 5 0 9 -4 9 -9z m28 -41 c-7
-11 -19 -20 -27 -20 -11 0 -10 5 4 20 10 11 22 20 27 20 4 0 3 -9 -4 -20z m36
-35 c-15 -23 -34 -33 -34 -18 0 10 32 43 42 43 5 0 1 -11 -8 -25z"/>
<path d="M2492 749 c2 -6 8 -10 13 -10 5 0 11 4 13 10 2 6 -4 11 -13 11 -9 0
-15 -5 -13 -11z"/>
<path d="M210 1080 c0 -7 310 -10 910 -10 600 0 910 3 910 10 0 7 -310 10
-910 10 -600 0 -910 -3 -910 -10z"/>
<path d="M2975 1080 c-4 -7 302 -10 910 -10 608 0 914 3 910 10 -4 7 -318 10
-910 10 -592 0 -906 -3 -910 -10z"/>
<path d="M1003 1003 c-21 -7 -18 -444 3 -488 33 -71 130 -83 189 -25 l30 30 3
237 c3 241 1 259 -35 246 -10 -4 -13 -51 -13 -228 0 -198 -2 -225 -18 -244
-24 -31 -79 -31 -104 -1 -16 20 -18 44 -18 245 0 227 -2 240 -37 228z"/>
<path d="M3553 998 c-14 -18 -115 -527 -107 -539 15 -25 39 -2 49 46 l11 50
62 3 62 3 6 -40 c9 -54 28 -81 46 -63 10 10 3 58 -36 260 -27 136 -53 257 -57
270 -9 25 -22 28 -36 10z m40 -266 c13 -62 21 -114 19 -117 -3 -3 -25 -5 -50
-5 -43 0 -44 1 -39 28 3 15 13 69 23 119 10 51 19 91 21 90 1 -2 13 -53 26
-115z"/>
<path d="M684 989 c-50 -25 -70 -119 -39 -179 8 -16 47 -54 85 -85 38 -31 77
-69 85 -85 36 -70 5 -130 -69 -130 -49 0 -60 9 -73 60 -7 25 -15 35 -29 35
-29 0 -30 -53 -2 -95 71 -105 238 -54 238 73 0 67 -33 120 -111 178 -76 56
-89 73 -89 116 0 47 25 73 70 73 44 0 60 -18 60 -68 0 -29 22 -48 41 -36 5 3
9 26 9 50 0 37 -6 51 -29 75 -25 24 -37 29 -78 28 -26 0 -57 -5 -69 -10z"/>
<path d="M1333 985 c-9 -24 7 -33 62 -37 l50 -3 3 -243 2 -243 23 3 c22 3 22
3 25 245 l2 242 53 3 c44 3 52 6 52 23 0 19 -8 20 -133 23 -114 2 -133 0 -139
-13z"/>
<path d="M1715 987 c-3 -7 -4 -127 -3 -267 l3 -255 77 -3 c88 -3 111 5 138 51
18 29 20 51 20 215 0 202 -6 229 -60 257 -37 19 -168 21 -175 2z m164 -63 c19
-25 21 -40 21 -200 0 -161 -2 -176 -20 -194 -15 -15 -33 -20 -70 -20 l-50 0 0
220 0 220 49 0 c42 0 53 -4 70 -26z"/>
<path d="M3105 987 c-3 -7 -4 -127 -3 -267 l3 -255 86 -3 86 -3 31 35 c53 60
57 167 8 230 -15 20 -22 37 -16 41 17 10 32 86 25 127 -4 22 -20 54 -37 74
-29 33 -32 34 -104 34 -51 0 -76 -4 -79 -13z m151 -62 c22 -33 21 -97 0 -130
-15 -22 -23 -26 -59 -23 l-42 3 -3 88 -3 87 45 0 c38 0 48 -4 62 -25z m13
-227 c37 -39 39 -113 5 -165 -12 -19 -23 -23 -69 -23 l-55 0 0 98 c0 54 3 102
7 105 3 4 26 7 49 7 31 0 49 -6 63 -22z"/>
<path d="M3807 994 c-4 -4 -7 -126 -7 -271 l0 -264 23 3 c22 3 22 5 27 190 l5
187 80 -187 c67 -155 85 -188 103 -190 l22 -3 -2 268 c-3 260 -4 268 -23 268
-19 0 -20 -8 -23 -190 l-3 -190 -82 190 c-77 175 -99 210 -120 189z"/>
<path d="M4175 987 c-3 -7 -4 -127 -3 -267 l3 -255 83 -3 c83 -3 83 -3 118 32
l34 34 0 202 0 202 -34 34 c-33 33 -36 34 -115 34 -57 0 -83 -4 -86 -13z m165
-57 c19 -19 20 -33 20 -200 0 -167 -1 -181 -20 -200 -15 -15 -33 -20 -70 -20
l-50 0 0 220 0 220 50 0 c37 0 55 -5 70 -20z"/>
<path d="M4582 984 c-29 -20 -52 -66 -52 -104 0 -54 29 -99 99 -151 78 -60
101 -91 101 -141 0 -51 -28 -78 -79 -78 -45 0 -67 17 -76 60 -8 37 -23 47 -42
27 -19 -18 -10 -65 18 -101 45 -57 154 -54 203 5 20 24 26 41 26 80 0 72 -28
120 -104 176 -77 57 -101 92 -92 135 9 45 24 58 65 58 45 0 61 -14 61 -55 0
-52 34 -73 50 -31 13 34 -5 91 -37 116 -32 25 -108 27 -141 4z"/>
<path d="M202 978 c4 -10 47 -14 161 -16 135 -2 157 0 157 13 0 13 -23 15
-161 15 -124 0 -160 -3 -157 -12z"/>
<path d="M202 878 c4 -10 47 -14 161 -16 135 -2 157 0 157 13 0 13 -23 15
-161 15 -124 0 -160 -3 -157 -12z"/>
<path d="M205 780 c-4 -7 50 -10 154 -10 101 0 161 4 161 10 0 6 -58 10 -154
10 -93 0 -157 -4 -161 -10z"/>
<path d="M205 690 c-15 -25 13 -30 161 -30 147 0 154 1 154 20 0 19 -7 20
-154 20 -93 0 -157 -4 -161 -10z"/>
<path d="M205 590 c-15 -25 13 -30 161 -30 147 0 154 1 154 20 0 19 -7 20
-154 20 -93 0 -157 -4 -161 -10z"/>
<path d="M205 490 c-15 -25 13 -30 161 -30 147 0 154 1 154 20 0 19 -7 20
-154 20 -93 0 -157 -4 -161 -10z"/>
<path d="M210 380 c0 -7 310 -10 910 -10 600 0 910 3 910 10 0 7 -310 10 -910
10 -600 0 -910 -3 -910 -10z"/>
<path d="M2970 380 c0 -7 310 -10 910 -10 600 0 910 3 910 10 0 7 -310 10
-910 10 -600 0 -910 -3 -910 -10z"/>
</g>
</svg>
