<?xml version="1.0" encoding="UTF-8"?>
<svg id="Layer_1" data-name="Layer 1" xmlns="http://www.w3.org/2000/svg" viewBox="0 0 1051.7 1056.05">
  <path d="m.06,527C-4.25,248.09,229.19-1.95,529.27.01c287.5,1.88,523.17,238.49,522.42,530.86-.75,290.88-240.74,526.65-529.82,525.18C235.92,1054.59-4.32,815.38.06,527Zm33.04-2.35c-4.51,275.01,225.19,503.61,502.84,497.42,266.79-5.95,489.81-227.11,482.78-507.33-6.86-273.5-232.64-480.88-492.85-480.96-279.96-.08-496.29,232.4-492.77,490.87Z"/>
  <path d="m522.39,169.14c4.45,7.33,8.99,14.81,14.73,24.25-82.06,52.16-163.46,103.9-247.49,157.31,26.08,16.52,50.44,32.21,75.06,47.48,49.02,30.42,98.41,60.23,147.08,91.19,10.45,6.65,17.33,5.53,27.1-.76,79.84-51.38,160.03-102.21,240.15-153.14,4.48-2.85,9.27-5.18,16.62-9.25.36,8.15.88,14.35.88,20.55.05,115.24-.19,230.49.35,345.73.06,13.1-4.03,20.47-15.04,27.39-79.89,50.16-159.34,101.04-238.99,151.59-5.36,3.4-11.23,6.02-17.52,9.35-5.08-8.17-9.45-15.2-14.89-23.97,39.87-25.43,78.72-50.3,117.67-75.03,42.1-26.73,84.5-53,126.2-80.34,5.9-3.87,12.2-12.59,12.25-19.12.75-97.14.49-194.28.4-291.42,0-2.35-.72-4.7-1.6-10.14-9.09,5.46-17.09,10.06-24.88,14.98-67.59,42.65-135.33,85.06-202.49,128.38-10.6,6.84-17.68,5.79-27.49-.37-73.78-46.33-147.86-92.18-221.87-138.15-2.96-1.84-6.16-3.31-11.7-6.26-.35,7.85-.87,14.05-.87,20.24-.05,95.94-.03,191.87-.04,287.81q0,25.44-29.14,22c-.36-5.94-1.07-12.29-1.07-18.65-.07-110.42-.24-220.84.38-331.25.04-7.49,4.09-18.21,9.83-21.94,86.14-56,172.88-111.09,259.51-166.33,1.4-.89,3.27-1.04,6.86-2.13Z"/>
</svg>